<?xml version="1.0" standalone="no"?>
<!DOCTYPE svg PUBLIC "-//W3C//DTD SVG 20010904//EN"
 "http://www.w3.org/TR/2001/REC-SVG-20010904/DTD/svg10.dtd">
<svg version="1.0" xmlns="http://www.w3.org/2000/svg"
 width="150.000000pt" height="150.000000pt" viewBox="0 0 150.000000 150.000000"
 preserveAspectRatio="xMidYMid meet">
<metadata>
Created by potrace 1.11, written by Peter Selinger 2001-2013
</metadata>
<g transform="translate(0.000000,150.000000) scale(0.100000,-0.100000)"
fill="#000000" stroke="none">
<path d="M270 1253 c-1 -4 43 -230 97 -500 l98 -493 50 0 51 0 74 308 c41 169
82 343 91 387 12 58 18 73 22 55 3 -14 43 -187 89 -385 l84 -360 50 -3 50 -3
98 483 c54 266 98 490 99 498 2 12 -10 15 -53 15 l-54 0 -62 -325 c-35 -179
-66 -353 -69 -388 -4 -35 -9 -61 -11 -59 -2 2 -9 30 -15 63 -19 107 -160 699
-168 707 -5 5 -28 7 -51 5 l-43 -3 -78 -334 c-43 -183 -82 -355 -85 -382 -4
-27 -10 -47 -14 -44 -4 2 -10 35 -14 72 -4 37 -35 207 -69 378 l-62 310 -52 3
c-29 2 -53 -1 -53 -5z"/>
</g>
</svg>
